<svg viewBox="0 0 400 400" xmlns="http://www.w3.org/2000/svg">
  <defs>
    <radialGradient id="bgbasmati-rice" cx="35%" cy="30%" r="80%">
      <stop offset="0%" stop-color="#FFFDFB"/>
      <stop offset="100%" stop-color="#EEDBC6"/>
    </radialGradient>
    <radialGradient id="subjbasmati-rice" cx="35%" cy="28%" r="75%">
      <stop offset="0%" stop-color="#FFFFFF"/>
      <stop offset="100%" stop-color="#D9C296"/>
    </radialGradient>
    <filter id="shadowbasmati-rice" x="-50%" y="-50%" width="200%" height="200%">
      <feGaussianBlur in="SourceAlpha" stdDeviation="10"/>
      <feOffset dx="0" dy="8" result="off"/>
      <feComponentTransfer><feFuncA type="linear" slope="0.28"/></feComponentTransfer>
      <feMerge><feMergeNode/><feMergeNode in="SourceGraphic"/></feMerge>
    </filter>
    <filter id="softbasmati-rice"><feGaussianBlur stdDeviation="6"/></filter>
  </defs>
  <circle cx="200" cy="196" r="188" fill="url(#bgbasmati-rice)"/>
  <circle cx="200" cy="196" r="187" fill="none" stroke="#CD9A6D" stroke-opacity="0.25" stroke-width="1.5"/>
  <ellipse cx="200" cy="322" rx="108" ry="20" fill="#4B2E2B" opacity="0.16" filter="url(#softbasmati-rice)"/>
  <g filter="url(#shadowbasmati-rice)"><ellipse cx="200" cy="238" rx="115" ry="55" fill="url(#subjbasmati-rice)"/><ellipse cx="208" cy="195" rx="5" ry="16" fill="#FFFFFF" stroke="#B89968" stroke-width="1.2" transform="rotate(-21 208 195)"/><ellipse cx="239" cy="167" rx="5" ry="16" fill="#FFFFFF" stroke="#B89968" stroke-width="1.2" transform="rotate(18 239 167)"/><ellipse cx="184" cy="187" rx="5" ry="16" fill="#FFFFFF" stroke="#B89968" stroke-width="1.2" transform="rotate(-13 184 187)"/><ellipse cx="209" cy="204" rx="5" ry="16" fill="#FFFFFF" stroke="#B89968" stroke-width="1.2" transform="rotate(26 209 204)"/><ellipse cx="131" cy="169" rx="5" ry="16" fill="#FFFFFF" stroke="#B89968" stroke-width="1.2" transform="rotate(-18 131 169)"/><ellipse cx="235" cy="174" rx="5" ry="16" fill="#FFFFFF" stroke="#B89968" stroke-width="1.2" transform="rotate(21 235 174)"/><ellipse cx="192" cy="185" rx="5" ry="16" fill="#FFFFFF" stroke="#B89968" stroke-width="1.2" transform="rotate(10 192 185)"/><ellipse cx="200" cy="190" rx="5" ry="16" fill="#FFFFFF" stroke="#B89968" stroke-width="1.2" transform="rotate(-25 200 190)"/><ellipse cx="115" cy="180" rx="5" ry="16" fill="#FFFFFF" stroke="#B89968" stroke-width="1.2" transform="rotate(-12 115 180)"/><ellipse cx="145" cy="167" rx="5" ry="16" fill="#FFFFFF" stroke="#B89968" stroke-width="1.2" transform="rotate(21 145 167)"/><ellipse cx="199" cy="182" rx="5" ry="16" fill="#FFFFFF" stroke="#B89968" stroke-width="1.2" transform="rotate(-4 199 182)"/><ellipse cx="227" cy="173" rx="5" ry="16" fill="#FFFFFF" stroke="#B89968" stroke-width="1.2" transform="rotate(-27 227 173)"/><ellipse cx="262" cy="195" rx="5" ry="16" fill="#FFFFFF" stroke="#B89968" stroke-width="1.2" transform="rotate(2 262 195)"/><ellipse cx="203" cy="164" rx="5" ry="16" fill="#FFFFFF" stroke="#B89968" stroke-width="1.2" transform="rotate(-18 203 164)"/><ellipse cx="205" cy="183" rx="5" ry="16" fill="#FFFFFF" stroke="#B89968" stroke-width="1.2" transform="rotate(-13 205 183)"/><ellipse cx="233" cy="192" rx="5" ry="16" fill="#FFFFFF" stroke="#B89968" stroke-width="1.2" transform="rotate(4 233 192)"/><ellipse cx="190" cy="211" rx="5" ry="16" fill="#FFFFFF" stroke="#B89968" stroke-width="1.2" transform="rotate(-16 190 211)"/><ellipse cx="154" cy="197" rx="5" ry="16" fill="#FFFFFF" stroke="#B89968" stroke-width="1.2" transform="rotate(-10 154 197)"/><ellipse cx="239" cy="208" rx="5" ry="16" fill="#FFFFFF" stroke="#B89968" stroke-width="1.2" transform="rotate(12 239 208)"/><ellipse cx="110" cy="170" rx="5" ry="16" fill="#FFFFFF" stroke="#B89968" stroke-width="1.2" transform="rotate(28 110 170)"/><ellipse cx="229" cy="166" rx="5" ry="16" fill="#FFFFFF" stroke="#B89968" stroke-width="1.2" transform="rotate(17 229 166)"/><ellipse cx="226" cy="176" rx="5" ry="16" fill="#FFFFFF" stroke="#B89968" stroke-width="1.2" transform="rotate(19 226 176)"/><ellipse cx="212" cy="192" rx="5" ry="16" fill="#FFFFFF" stroke="#B89968" stroke-width="1.2" transform="rotate(-22 212 192)"/><ellipse cx="235" cy="189" rx="5" ry="16" fill="#FFFFFF" stroke="#B89968" stroke-width="1.2" transform="rotate(-29 235 189)"/><ellipse cx="217" cy="176" rx="5" ry="16" fill="#FFFFFF" stroke="#B89968" stroke-width="1.2" transform="rotate(-8 217 176)"/><ellipse cx="206" cy="167" rx="5" ry="16" fill="#FFFFFF" stroke="#B89968" stroke-width="1.2" transform="rotate(-5 206 167)"/><ellipse cx="205" cy="212" rx="5" ry="16" fill="#FFFFFF" stroke="#B89968" stroke-width="1.2" transform="rotate(-20 205 212)"/><ellipse cx="192" cy="212" rx="5" ry="16" fill="#FFFFFF" stroke="#B89968" stroke-width="1.2" transform="rotate(-1 192 212)"/><ellipse cx="271" cy="199" rx="5" ry="16" fill="#FFFFFF" stroke="#B89968" stroke-width="1.2" transform="rotate(2 271 199)"/><ellipse cx="169" cy="163" rx="5" ry="16" fill="#FFFFFF" stroke="#B89968" stroke-width="1.2" transform="rotate(-1 169 163)"/><ellipse cx="230" cy="209" rx="5" ry="16" fill="#FFFFFF" stroke="#B89968" stroke-width="1.2" transform="rotate(-5 230 209)"/><ellipse cx="263" cy="166" rx="5" ry="16" fill="#FFFFFF" stroke="#B89968" stroke-width="1.2" transform="rotate(-0 263 166)"/><ellipse cx="225" cy="201" rx="5" ry="16" fill="#FFFFFF" stroke="#B89968" stroke-width="1.2" transform="rotate(-18 225 201)"/><ellipse cx="265" cy="200" rx="5" ry="16" fill="#FFFFFF" stroke="#B89968" stroke-width="1.2" transform="rotate(-27 265 200)"/><ellipse cx="145" cy="162" rx="5" ry="16" fill="#FFFFFF" stroke="#B89968" stroke-width="1.2" transform="rotate(-6 145 162)"/><ellipse cx="138" cy="170" rx="5" ry="16" fill="#FFFFFF" stroke="#B89968" stroke-width="1.2" transform="rotate(15 138 170)"/><ellipse cx="200" cy="204" rx="5" ry="16" fill="#FFFFFF" stroke="#B89968" stroke-width="1.2" transform="rotate(22 200 204)"/><ellipse cx="112" cy="190" rx="5" ry="16" fill="#FFFFFF" stroke="#B89968" stroke-width="1.2" transform="rotate(9 112 190)"/><ellipse cx="148" cy="169" rx="5" ry="16" fill="#FFFFFF" stroke="#B89968" stroke-width="1.2" transform="rotate(2 148 169)"/><ellipse cx="168" cy="195" rx="5" ry="16" fill="#FFFFFF" stroke="#B89968" stroke-width="1.2" transform="rotate(25 168 195)"/><ellipse cx="193" cy="168" rx="5" ry="16" fill="#FFFFFF" stroke="#B89968" stroke-width="1.2" transform="rotate(28 193 168)"/><ellipse cx="198" cy="171" rx="5" ry="16" fill="#FFFFFF" stroke="#B89968" stroke-width="1.2" transform="rotate(-22 198 171)"/><ellipse cx="134" cy="205" rx="5" ry="16" fill="#FFFFFF" stroke="#B89968" stroke-width="1.2" transform="rotate(-20 134 205)"/><ellipse cx="177" cy="173" rx="5" ry="16" fill="#FFFFFF" stroke="#B89968" stroke-width="1.2" transform="rotate(26 177 173)"/><ellipse cx="200" cy="171" rx="5" ry="16" fill="#FFFFFF" stroke="#B89968" stroke-width="1.2" transform="rotate(-29 200 171)"/><ellipse cx="189" cy="175" rx="5" ry="16" fill="#FFFFFF" stroke="#B89968" stroke-width="1.2" transform="rotate(17 189 175)"/><ellipse cx="149" cy="167" rx="5" ry="16" fill="#FFFFFF" stroke="#B89968" stroke-width="1.2" transform="rotate(-18 149 167)"/><ellipse cx="183" cy="169" rx="5" ry="16" fill="#FFFFFF" stroke="#B89968" stroke-width="1.2" transform="rotate(16 183 169)"/><ellipse cx="205" cy="208" rx="5" ry="16" fill="#FFFFFF" stroke="#B89968" stroke-width="1.2" transform="rotate(-28 205 208)"/><ellipse cx="186" cy="169" rx="5" ry="16" fill="#FFFFFF" stroke="#B89968" stroke-width="1.2" transform="rotate(6 186 169)"/><ellipse cx="233" cy="175" rx="5" ry="16" fill="#FFFFFF" stroke="#B89968" stroke-width="1.2" transform="rotate(1 233 175)"/><ellipse cx="284" cy="167" rx="5" ry="16" fill="#FFFFFF" stroke="#B89968" stroke-width="1.2" transform="rotate(-25 284 167)"/><ellipse cx="195" cy="173" rx="5" ry="16" fill="#FFFFFF" stroke="#B89968" stroke-width="1.2" transform="rotate(-11 195 173)"/><ellipse cx="236" cy="164" rx="5" ry="16" fill="#FFFFFF" stroke="#B89968" stroke-width="1.2" transform="rotate(-24 236 164)"/><ellipse cx="258" cy="166" rx="5" ry="16" fill="#FFFFFF" stroke="#B89968" stroke-width="1.2" transform="rotate(1 258 166)"/><ellipse cx="218" cy="169" rx="5" ry="16" fill="#FFFFFF" stroke="#B89968" stroke-width="1.2" transform="rotate(-26 218 169)"/><ellipse cx="182" cy="199" rx="5" ry="16" fill="#FFFFFF" stroke="#B89968" stroke-width="1.2" transform="rotate(20 182 199)"/><ellipse cx="219" cy="199" rx="5" ry="16" fill="#FFFFFF" stroke="#B89968" stroke-width="1.2" transform="rotate(22 219 199)"/><ellipse cx="213" cy="190" rx="5" ry="16" fill="#FFFFFF" stroke="#B89968" stroke-width="1.2" transform="rotate(-10 213 190)"/><ellipse cx="188" cy="172" rx="5" ry="16" fill="#FFFFFF" stroke="#B89968" stroke-width="1.2" transform="rotate(-30 188 172)"/><ellipse cx="230" cy="186" rx="5" ry="16" fill="#FFFFFF" stroke="#B89968" stroke-width="1.2" transform="rotate(13 230 186)"/><ellipse cx="200" cy="202" rx="5" ry="16" fill="#FFFFFF" stroke="#B89968" stroke-width="1.2" transform="rotate(21 200 202)"/><ellipse cx="233" cy="160" rx="5" ry="16" fill="#FFFFFF" stroke="#B89968" stroke-width="1.2" transform="rotate(8 233 160)"/><ellipse cx="168" cy="194" rx="5" ry="16" fill="#FFFFFF" stroke="#B89968" stroke-width="1.2" transform="rotate(25 168 194)"/><ellipse cx="209" cy="191" rx="5" ry="16" fill="#FFFFFF" stroke="#B89968" stroke-width="1.2" transform="rotate(22 209 191)"/><ellipse cx="165" cy="195" rx="46" ry="22" fill="white" opacity="0.32" transform="rotate(-6 165 195)"/></g>
</svg>