<svg viewBox="0 0 400 400" xmlns="http://www.w3.org/2000/svg">
  <defs>
    <radialGradient id="bgblack-pepper" cx="35%" cy="30%" r="80%">
      <stop offset="0%" stop-color="#FFFDFB"/>
      <stop offset="100%" stop-color="#EEDBC6"/>
    </radialGradient>
    <radialGradient id="subjblack-pepper" cx="35%" cy="28%" r="75%">
      <stop offset="0%" stop-color="#544539"/>
      <stop offset="100%" stop-color="#2E2620"/>
    </radialGradient>
    <filter id="shadowblack-pepper" x="-50%" y="-50%" width="200%" height="200%">
      <feGaussianBlur in="SourceAlpha" stdDeviation="10"/>
      <feOffset dx="0" dy="8" result="off"/>
      <feComponentTransfer><feFuncA type="linear" slope="0.28"/></feComponentTransfer>
      <feMerge><feMergeNode/><feMergeNode in="SourceGraphic"/></feMerge>
    </filter>
    <filter id="softblack-pepper"><feGaussianBlur stdDeviation="6"/></filter>
  </defs>
  <circle cx="200" cy="196" r="188" fill="url(#bgblack-pepper)"/>
  <circle cx="200" cy="196" r="187" fill="none" stroke="#CD9A6D" stroke-opacity="0.25" stroke-width="1.5"/>
  <ellipse cx="200" cy="322" rx="108" ry="20" fill="#4B2E2B" opacity="0.16" filter="url(#softblack-pepper)"/>
  <g filter="url(#shadowblack-pepper)"><ellipse cx="200" cy="235" rx="105" ry="52" fill="url(#subjblack-pepper)"/><circle cx="204" cy="209" r="7" fill="#544539" opacity="0.85"/><circle cx="199" cy="197" r="7" fill="#544539" opacity="0.85"/><circle cx="193" cy="194" r="7" fill="#544539" opacity="0.85"/><circle cx="199" cy="202" r="7" fill="#544539" opacity="0.85"/><circle cx="175" cy="183" r="7" fill="#544539" opacity="0.85"/><circle cx="219" cy="211" r="7" fill="#544539" opacity="0.85"/><circle cx="198" cy="185" r="7" fill="#544539" opacity="0.85"/><circle cx="173" cy="183" r="7" fill="#544539" opacity="0.85"/><circle cx="225" cy="187" r="7" fill="#544539" opacity="0.85"/><circle cx="175" cy="210" r="7" fill="#544539" opacity="0.85"/><circle cx="213" cy="204" r="7" fill="#544539" opacity="0.85"/><circle cx="185" cy="179" r="7" fill="#544539" opacity="0.85"/><circle cx="195" cy="202" r="7" fill="#544539" opacity="0.85"/><circle cx="200" cy="200" r="7" fill="#544539" opacity="0.85"/><circle cx="190" cy="192" r="7" fill="#544539" opacity="0.85"/><circle cx="249" cy="175" r="7" fill="#544539" opacity="0.85"/><circle cx="201" cy="214" r="7" fill="#544539" opacity="0.85"/><circle cx="200" cy="214" r="7" fill="#544539" opacity="0.85"/><circle cx="201" cy="192" r="7" fill="#544539" opacity="0.85"/><circle cx="218" cy="208" r="7" fill="#544539" opacity="0.85"/><circle cx="196" cy="191" r="7" fill="#544539" opacity="0.85"/><circle cx="195" cy="194" r="7" fill="#544539" opacity="0.85"/><circle cx="195" cy="205" r="7" fill="#544539" opacity="0.85"/><circle cx="108" cy="204" r="7" fill="#544539" opacity="0.85"/><circle cx="147" cy="199" r="7" fill="#544539" opacity="0.85"/><circle cx="199" cy="202" r="7" fill="#544539" opacity="0.85"/><circle cx="172" cy="180" r="7" fill="#544539" opacity="0.85"/><circle cx="231" cy="179" r="7" fill="#544539" opacity="0.85"/><circle cx="189" cy="197" r="7" fill="#544539" opacity="0.85"/><circle cx="147" cy="212" r="7" fill="#544539" opacity="0.85"/><circle cx="176" cy="197" r="7" fill="#544539" opacity="0.85"/><circle cx="232" cy="200" r="7" fill="#544539" opacity="0.85"/><circle cx="256" cy="208" r="7" fill="#544539" opacity="0.85"/><circle cx="198" cy="185" r="7" fill="#544539" opacity="0.85"/><circle cx="162" cy="184" r="7" fill="#544539" opacity="0.85"/><circle cx="248" cy="193" r="7" fill="#544539" opacity="0.85"/><circle cx="266" cy="192" r="7" fill="#544539" opacity="0.85"/><circle cx="231" cy="195" r="7" fill="#544539" opacity="0.85"/><circle cx="192" cy="181" r="7" fill="#544539" opacity="0.85"/><circle cx="203" cy="177" r="7" fill="#544539" opacity="0.85"/><circle cx="275" cy="168" r="7" fill="#544539" opacity="0.85"/><circle cx="200" cy="215" r="7" fill="#544539" opacity="0.85"/><circle cx="228" cy="189" r="7" fill="#544539" opacity="0.85"/><circle cx="168" cy="209" r="7" fill="#544539" opacity="0.85"/><circle cx="198" cy="213" r="7" fill="#544539" opacity="0.85"/><circle cx="189" cy="209" r="7" fill="#544539" opacity="0.85"/><circle cx="210" cy="179" r="7" fill="#544539" opacity="0.85"/><circle cx="229" cy="203" r="7" fill="#544539" opacity="0.85"/><circle cx="156" cy="174" r="7" fill="#544539" opacity="0.85"/><circle cx="200" cy="215" r="7" fill="#544539" opacity="0.85"/><circle cx="199" cy="190" r="7" fill="#544539" opacity="0.85"/><circle cx="269" cy="201" r="7" fill="#544539" opacity="0.85"/><circle cx="216" cy="197" r="7" fill="#544539" opacity="0.85"/><circle cx="193" cy="207" r="7" fill="#544539" opacity="0.85"/><circle cx="205" cy="187" r="7" fill="#544539" opacity="0.85"/><circle cx="197" cy="176" r="7" fill="#544539" opacity="0.85"/><circle cx="153" cy="191" r="7" fill="#544539" opacity="0.85"/><circle cx="190" cy="207" r="7" fill="#544539" opacity="0.85"/><circle cx="178" cy="200" r="7" fill="#544539" opacity="0.85"/><circle cx="157" cy="207" r="7" fill="#544539" opacity="0.85"/><circle cx="176" cy="193" r="7" fill="#544539" opacity="0.85"/><circle cx="198" cy="192" r="7" fill="#544539" opacity="0.85"/><circle cx="231" cy="200" r="7" fill="#544539" opacity="0.85"/><circle cx="143" cy="185" r="7" fill="#544539" opacity="0.85"/><circle cx="197" cy="193" r="7" fill="#544539" opacity="0.85"/><circle cx="178" cy="195" r="7" fill="#544539" opacity="0.85"/><circle cx="217" cy="191" r="7" fill="#544539" opacity="0.85"/><circle cx="205" cy="203" r="7" fill="#544539" opacity="0.85"/><circle cx="205" cy="212" r="7" fill="#544539" opacity="0.85"/><circle cx="177" cy="182" r="7" fill="#544539" opacity="0.85"/><circle cx="288" cy="184" r="7" fill="#544539" opacity="0.85"/><circle cx="110" cy="174" r="7" fill="#544539" opacity="0.85"/><circle cx="230" cy="205" r="7" fill="#544539" opacity="0.85"/><circle cx="186" cy="207" r="7" fill="#544539" opacity="0.85"/><circle cx="210" cy="177" r="7" fill="#544539" opacity="0.85"/><circle cx="166" cy="183" r="7" fill="#544539" opacity="0.85"/><circle cx="205" cy="198" r="7" fill="#544539" opacity="0.85"/><circle cx="191" cy="205" r="7" fill="#544539" opacity="0.85"/><circle cx="199" cy="198" r="7" fill="#544539" opacity="0.85"/><circle cx="198" cy="213" r="7" fill="#544539" opacity="0.85"/><circle cx="196" cy="207" r="7" fill="#544539" opacity="0.85"/><circle cx="150" cy="203" r="7" fill="#544539" opacity="0.85"/><circle cx="225" cy="203" r="7" fill="#544539" opacity="0.85"/><circle cx="127" cy="176" r="7" fill="#544539" opacity="0.85"/><circle cx="118" cy="173" r="7" fill="#544539" opacity="0.85"/><circle cx="114" cy="205" r="7" fill="#544539" opacity="0.85"/><circle cx="212" cy="190" r="7" fill="#544539" opacity="0.85"/><circle cx="201" cy="180" r="7" fill="#544539" opacity="0.85"/><circle cx="206" cy="204" r="7" fill="#544539" opacity="0.85"/><circle cx="207" cy="189" r="7" fill="#544539" opacity="0.85"/><circle cx="203" cy="199" r="7" fill="#544539" opacity="0.85"/><circle cx="208" cy="194" r="7" fill="#544539" opacity="0.85"/><circle cx="254" cy="184" r="7" fill="#544539" opacity="0.85"/><circle cx="252" cy="198" r="7" fill="#544539" opacity="0.85"/><circle cx="209" cy="180" r="7" fill="#544539" opacity="0.85"/><circle cx="137" cy="202" r="7" fill="#544539" opacity="0.85"/><circle cx="196" cy="214" r="7" fill="#544539" opacity="0.85"/><circle cx="193" cy="177" r="7" fill="#544539" opacity="0.85"/><circle cx="240" cy="189" r="7" fill="#544539" opacity="0.85"/><circle cx="263" cy="199" r="7" fill="#544539" opacity="0.85"/><ellipse cx="162" cy="195" rx="42" ry="20" fill="white" opacity="0.32" transform="rotate(-6 162 195)"/></g>
</svg>