<svg viewBox="0 0 400 400" xmlns="http://www.w3.org/2000/svg">
  <defs>
    <radialGradient id="bgcauliflower" cx="35%" cy="30%" r="80%">
      <stop offset="0%" stop-color="#FFFDFB"/>
      <stop offset="100%" stop-color="#EEDBC6"/>
    </radialGradient>
    <radialGradient id="subjcauliflower" cx="35%" cy="28%" r="75%">
      <stop offset="0%" stop-color="#FFFBF3"/>
      <stop offset="100%" stop-color="#F2ECDD"/>
    </radialGradient>
    <filter id="shadowcauliflower" x="-50%" y="-50%" width="200%" height="200%">
      <feGaussianBlur in="SourceAlpha" stdDeviation="10"/>
      <feOffset dx="0" dy="8" result="off"/>
      <feComponentTransfer><feFuncA type="linear" slope="0.28"/></feComponentTransfer>
      <feMerge><feMergeNode/><feMergeNode in="SourceGraphic"/></feMerge>
    </filter>
    <filter id="softcauliflower"><feGaussianBlur stdDeviation="6"/></filter>
  </defs>
  <circle cx="200" cy="196" r="188" fill="url(#bgcauliflower)"/>
  <circle cx="200" cy="196" r="187" fill="none" stroke="#CD9A6D" stroke-opacity="0.25" stroke-width="1.5"/>
  <ellipse cx="200" cy="322" rx="108" ry="20" fill="#4B2E2B" opacity="0.16" filter="url(#softcauliflower)"/>
  <g filter="url(#shadowcauliflower)"><ellipse cx="268" cy="225" rx="26" ry="35" fill="#7CA854" transform="rotate(0 268 225)"/><ellipse cx="234" cy="260" rx="26" ry="35" fill="#7CA854" transform="rotate(60 234 260)"/><ellipse cx="166" cy="260" rx="26" ry="35" fill="#7CA854" transform="rotate(120 166 260)"/><ellipse cx="132" cy="225" rx="26" ry="35" fill="#7CA854" transform="rotate(180 132 225)"/><ellipse cx="166" cy="190" rx="26" ry="35" fill="#7CA854" transform="rotate(240 166 190)"/><ellipse cx="234" cy="190" rx="26" ry="35" fill="#7CA854" transform="rotate(300 234 190)"/><circle cx="200" cy="195" r="88.0" fill="url(#subjcauliflower)"/><circle cx="161" cy="207" r="12" fill="#FFFBF3" opacity="0.6"/><circle cx="164" cy="203" r="10" fill="#FFFBF3" opacity="0.6"/><circle cx="215" cy="229" r="10" fill="#FFFBF3" opacity="0.6"/><circle cx="202" cy="188" r="9" fill="#FFFBF3" opacity="0.6"/><circle cx="249" cy="227" r="10" fill="#FFFBF3" opacity="0.6"/><circle cx="268" cy="213" r="12" fill="#FFFBF3" opacity="0.6"/><circle cx="175" cy="158" r="8" fill="#FFFBF3" opacity="0.6"/><circle cx="238" cy="199" r="7" fill="#FFFBF3" opacity="0.6"/><circle cx="206" cy="211" r="7" fill="#FFFBF3" opacity="0.6"/><circle cx="169" cy="202" r="11" fill="#FFFBF3" opacity="0.6"/><circle cx="154" cy="189" r="9" fill="#FFFBF3" opacity="0.6"/><circle cx="183" cy="167" r="8" fill="#FFFBF3" opacity="0.6"/><circle cx="272" cy="194" r="11" fill="#FFFBF3" opacity="0.6"/><circle cx="194" cy="173" r="8" fill="#FFFBF3" opacity="0.6"/><circle cx="199" cy="200" r="11" fill="#FFFBF3" opacity="0.6"/><circle cx="150" cy="231" r="9" fill="#FFFBF3" opacity="0.6"/><circle cx="259" cy="179" r="7" fill="#FFFBF3" opacity="0.6"/><circle cx="216" cy="259" r="9" fill="#FFFBF3" opacity="0.6"/><circle cx="228" cy="191" r="7" fill="#FFFBF3" opacity="0.6"/><circle cx="161" cy="154" r="8" fill="#FFFBF3" opacity="0.6"/><circle cx="220" cy="207" r="12" fill="#FFFBF3" opacity="0.6"/><circle cx="200" cy="186" r="8" fill="#FFFBF3" opacity="0.6"/><circle cx="203" cy="198" r="11" fill="#FFFBF3" opacity="0.6"/><circle cx="218" cy="231" r="9" fill="#FFFBF3" opacity="0.6"/><circle cx="219" cy="244" r="8" fill="#FFFBF3" opacity="0.6"/><circle cx="195" cy="188" r="9" fill="#FFFBF3" opacity="0.6"/><circle cx="205" cy="214" r="12" fill="#FFFBF3" opacity="0.6"/><circle cx="207" cy="174" r="11" fill="#FFFBF3" opacity="0.6"/><circle cx="207" cy="223" r="11" fill="#FFFBF3" opacity="0.6"/><circle cx="195" cy="189" r="12" fill="#FFFBF3" opacity="0.6"/><circle cx="204" cy="213" r="11" fill="#FFFBF3" opacity="0.6"/><circle cx="190" cy="214" r="7" fill="#FFFBF3" opacity="0.6"/><circle cx="235" cy="218" r="8" fill="#FFFBF3" opacity="0.6"/><circle cx="178" cy="179" r="9" fill="#FFFBF3" opacity="0.6"/><circle cx="234" cy="186" r="10" fill="#FFFBF3" opacity="0.6"/><circle cx="209" cy="185" r="8" fill="#FFFBF3" opacity="0.6"/><circle cx="250" cy="163" r="8" fill="#FFFBF3" opacity="0.6"/><circle cx="220" cy="245" r="12" fill="#FFFBF3" opacity="0.6"/><circle cx="223" cy="260" r="11" fill="#FFFBF3" opacity="0.6"/><circle cx="176" cy="177" r="8" fill="#FFFBF3" opacity="0.6"/><circle cx="267" cy="212" r="8" fill="#FFFBF3" opacity="0.6"/><circle cx="195" cy="177" r="11" fill="#FFFBF3" opacity="0.6"/><circle cx="183" cy="183" r="8" fill="#FFFBF3" opacity="0.6"/><circle cx="199" cy="190" r="8" fill="#FFFBF3" opacity="0.6"/><circle cx="143" cy="173" r="10" fill="#FFFBF3" opacity="0.6"/><circle cx="188" cy="260" r="8" fill="#FFFBF3" opacity="0.6"/><circle cx="219" cy="197" r="9" fill="#FFFBF3" opacity="0.6"/><circle cx="212" cy="200" r="9" fill="#FFFBF3" opacity="0.6"/><circle cx="191" cy="191" r="9" fill="#FFFBF3" opacity="0.6"/><circle cx="255" cy="150" r="10" fill="#FFFBF3" opacity="0.6"/><circle cx="185" cy="156" r="8" fill="#FFFBF3" opacity="0.6"/><circle cx="201" cy="195" r="12" fill="#FFFBF3" opacity="0.6"/><circle cx="179" cy="129" r="7" fill="#FFFBF3" opacity="0.6"/><circle cx="177" cy="169" r="11" fill="#FFFBF3" opacity="0.6"/><circle cx="170" cy="260" r="7" fill="#FFFBF3" opacity="0.6"/><circle cx="149" cy="180" r="12" fill="#FFFBF3" opacity="0.6"/><ellipse cx="173.6" cy="163.88" rx="29.92" ry="22.880000000000003" fill="white" opacity="0.32" transform="rotate(-20 173.6 163.88)"/></g>
</svg>